<svg width="100%" viewBox="0 0 110 41" fill="none" xmlns="http://www.w3.org/2000/svg">
<path fill-rule="evenodd" clip-rule="evenodd" d="M8.72395 17.5419C9.93654 13.6634 13.5074 10.8534 17.7238 10.8534C22.9383 10.8534 27.1655 15.1516 27.1655 20.4535C27.1655 25.3788 23.5175 29.4377 18.819 29.9895V26.9663C20.8787 26.6116 22.6087 25.2725 23.5242 23.4419H20.9083C20.1165 24.3125 18.9833 24.8576 17.7247 24.8576C15.331 24.8576 13.3905 22.8858 13.3905 20.4534C13.3905 18.0211 15.331 16.0494 17.7247 16.0494C19.0207 16.0494 20.1839 16.6274 20.9782 17.5437H23.5629C22.504 15.3542 20.2876 13.8474 17.7247 13.8474C14.1342 13.8474 11.2235 16.805 11.2235 20.4534C11.2235 23.7273 13.5671 26.4449 16.6427 26.9684V29.9911C12.9337 29.5613 9.87706 26.9464 8.74883 23.4436H6.4907C7.79286 28.5145 12.3285 32.2566 17.7238 32.2566C24.1351 32.2566 29.3326 26.9723 29.3326 20.4535C29.3326 13.9347 24.135 8.65015 17.7238 8.65015C12.3006 8.65015 7.74594 12.4312 6.47079 17.5419H8.72395ZM40.0872 24.7969H37.5592V20.9978L38.2804 20.9609H39.7942C40.5756 20.9486 41.1802 21.1224 41.6076 21.4824C42.0472 21.83 42.2671 22.3141 42.2671 22.9348C42.2671 23.5058 42.0716 23.959 41.6809 24.2941C41.2901 24.6292 40.7589 24.7969 40.0872 24.7969ZM42.5238 19.9953C42.8681 19.7638 43.155 19.496 43.3845 19.192C43.7997 18.6459 44.0073 18.0314 44.0073 17.3487C44.0073 16.5417 43.8302 15.8714 43.4761 15.3377C43.1219 14.7914 42.6211 14.3818 41.9739 14.1087C41.339 13.8231 40.5817 13.6804 39.7025 13.6804L37.5592 13.705V13.699H35.4709V26.7333H40.252C41.1069 26.7333 41.8457 26.5906 42.4685 26.305C43.0913 26.0196 43.5738 25.6037 43.9158 25.0575C44.2577 24.5113 44.4286 23.8534 44.4286 23.0837C44.4286 22.2024 44.1967 21.4824 43.7326 20.9238C43.419 20.5463 43.0161 20.2367 42.5238 19.9953ZM37.5592 15.4679H39.5926C40.3008 15.4556 40.8505 15.6108 41.2413 15.9334C41.6442 16.2562 41.8457 16.7156 41.8457 17.3113C41.8457 17.8948 41.6686 18.3541 41.3146 18.6892C40.9726 19.0121 40.4963 19.1735 39.8857 19.1735H37.5592V15.4679ZM52.7169 25.7408L52.7688 26.7332H54.6922L54.7471 21.6314C54.7471 20.663 54.6006 19.85 54.3075 19.192C54.0145 18.534 53.5687 18.0376 52.9702 17.7024C52.384 17.3671 51.6452 17.1996 50.7538 17.1996C50.0576 17.1996 49.4532 17.3052 48.9402 17.5162C48.4396 17.7273 48.0243 18.0126 47.6946 18.3728C47.3648 18.7327 47.0962 19.1174 46.8886 19.5272L48.757 20.1975C48.9768 19.8127 49.2516 19.5272 49.5814 19.341C49.9111 19.1548 50.2897 19.0616 50.7171 19.0616C51.1812 19.0616 51.5537 19.1734 51.8345 19.3968C52.1276 19.6203 52.3414 19.9431 52.4757 20.3651C52.5471 20.5897 52.5996 20.8442 52.6331 21.1286H50.3508C49.2028 21.1286 48.3052 21.3831 47.658 21.892C47.0229 22.401 46.7054 23.1395 46.7054 24.1078C46.7054 25.014 47.0046 25.7155 47.603 26.2119C48.2136 26.7084 49.0684 26.9568 50.1676 26.9568C51.2789 26.9568 52.097 26.5968 52.6222 25.8767C52.6549 25.8322 52.6864 25.7869 52.7169 25.7408ZM52.6772 22.8789V22.7299H51.0102C50.1919 22.7299 49.618 22.8478 49.2883 23.0836C48.9586 23.3071 48.7936 23.63 48.7936 24.052C48.7936 24.4119 48.9342 24.6975 49.215 24.9086C49.5081 25.107 49.9111 25.2064 50.4239 25.2064C50.8759 25.2064 51.2666 25.1009 51.5964 24.8898C51.9384 24.6665 52.2009 24.3809 52.384 24.0333C52.5794 23.6733 52.6772 23.2886 52.6772 22.8789ZM57.7419 26.7332V13.699H59.7934V18.7829C60.0401 18.3913 60.3393 18.0684 60.691 17.8141C61.2528 17.4044 61.9184 17.1996 62.6877 17.1996C63.5182 17.1996 64.2387 17.4044 64.8493 17.8141C65.4722 18.2114 65.9545 18.7762 66.2964 19.5086C66.6506 20.2285 66.8277 21.085 66.8277 22.0782C66.8277 23.0588 66.6506 23.9154 66.2964 24.6477C65.9545 25.3803 65.4722 25.9513 64.8493 26.361C64.2387 26.7582 63.5182 26.9568 62.6877 26.9568C61.9184 26.9568 61.2528 26.7582 60.691 26.361C60.329 26.091 60.0226 25.7511 59.7719 25.3411L59.6836 26.7332H57.7419ZM60.0866 23.6237C59.8912 23.1768 59.7934 22.6616 59.7934 22.0782C59.7934 21.4947 59.8912 20.9796 60.0866 20.5327C60.2942 20.0858 60.5812 19.7382 60.9475 19.4899C61.3139 19.2416 61.7291 19.1174 62.1932 19.1174C62.6939 19.1174 63.1335 19.2416 63.512 19.4899C63.8907 19.7382 64.1838 20.0858 64.3914 20.5327C64.6112 20.9796 64.7211 21.4947 64.7211 22.0782C64.7211 22.6616 64.605 23.1768 64.3731 23.6237C64.1533 24.0706 63.854 24.4244 63.4755 24.685C63.0969 24.9333 62.6634 25.0575 62.1748 25.0575C61.7107 25.0575 61.2956 24.9333 60.9293 24.685C60.575 24.4244 60.2942 24.0706 60.0866 23.6237ZM69.6154 30.5132C69.9819 30.6251 70.3115 30.6809 70.6046 30.6809C71.2153 30.6809 71.716 30.5567 72.1067 30.3085C72.4975 30.0726 72.8212 29.7312 73.0776 29.2843C73.3463 28.8374 73.6087 28.316 73.8653 27.7202L78.1151 17.4231H75.8803L73.1668 24.3104L70.3664 17.4231H68.1316L72.2036 26.6621L71.7037 27.8506C71.5816 28.1484 71.4167 28.3719 71.2091 28.5209C71.0137 28.6823 70.7694 28.7629 70.4765 28.7629C70.3543 28.7629 70.1955 28.7258 70.0001 28.6512C69.8047 28.5891 69.591 28.5023 69.359 28.3905L68.5895 30.085C68.9183 30.2584 69.2616 30.4017 69.6154 30.5132ZM80.2529 26.7332V13.699H82.3044V26.7332H80.2529ZM87.2558 26.3423C87.9762 26.7519 88.7945 26.9568 89.7107 26.9568C90.6143 26.9568 91.4207 26.7519 92.1285 26.3423C92.837 25.9202 93.3867 25.343 93.7777 24.6107C94.1679 23.8781 94.3638 23.034 94.3638 22.0782C94.3638 21.1223 94.1623 20.2782 93.7587 19.5459C93.3685 18.8134 92.8188 18.2424 92.1103 17.8327C91.4018 17.4106 90.5898 17.1996 89.6744 17.1996C88.7581 17.1996 87.9462 17.4106 87.2377 17.8327C86.5292 18.2424 85.9739 18.8134 85.5711 19.5459C85.18 20.2782 84.9846 21.1223 84.9846 22.0782C84.9846 23.034 85.1862 23.8781 85.5892 24.6107C85.9921 25.343 86.5481 25.9202 87.2558 26.3423ZM91.0479 24.6665C90.657 24.9147 90.2115 25.0389 89.7107 25.0389C89.1981 25.0389 88.74 24.9147 88.3371 24.6665C87.9462 24.4057 87.635 24.0582 87.4027 23.6237C87.1832 23.1768 87.0726 22.6616 87.0726 22.0782C87.0726 21.4947 87.1832 20.9796 87.4027 20.5327C87.6223 20.0858 87.928 19.7382 88.3182 19.4899C88.7092 19.2416 89.161 19.1174 89.6744 19.1174C90.187 19.1174 90.6388 19.2478 91.0298 19.5086C91.4208 19.7569 91.7256 20.1044 91.9452 20.5513C92.1774 20.9859 92.2935 21.4947 92.2935 22.0782C92.2935 22.6616 92.1838 23.1768 91.9642 23.6237C91.7438 24.0582 91.4389 24.4057 91.0479 24.6665ZM97.0572 17.4231H98.9805L99.0776 18.7179C99.3201 18.3198 99.6171 17.9999 99.9694 17.7583C100.495 17.3858 101.118 17.1996 101.838 17.1996C102.95 17.1996 103.804 17.5472 104.403 18.2424C105.013 18.9251 105.318 19.9802 105.318 21.4078V26.7332H103.267V21.9665C103.267 21.2216 103.182 20.6507 103.01 20.2533C102.852 19.8437 102.619 19.5582 102.314 19.3968C102.021 19.2355 101.673 19.1548 101.27 19.1548C100.586 19.1424 100.055 19.372 99.6764 19.8437C99.298 20.3154 99.1084 20.992 99.1084 21.8734V26.7332H97.0572V17.4231Z" fill="white"/>
<path d="M20.1008 20.4483C20.1008 21.7855 19.0345 22.8695 17.7192 22.8695C16.4038 22.8695 15.3375 21.7855 15.3375 20.4483C15.3375 19.1111 16.4038 18.0271 17.7192 18.0271C19.0345 18.0271 20.1008 19.1111 20.1008 20.4483Z" fill="white"/>
<clipPath id="clip0_121_1263">
<rect width="98.9693" height="23.6074" fill="white" transform="translate(6.42328 8.65015)"/>
</clipPath>
</svg>
