<svg width="61" height="44" viewBox="0 0 61 44" fill="none" xmlns="http://www.w3.org/2000/svg">
<path fill-rule="evenodd" clip-rule="evenodd" d="M19.2595 0.0594927C22.1914 -0.140751 25.0699 0.164498 27.8949 0.975241C27.9846 1.05949 28.0501 1.16124 28.0912 1.28049C26.8482 5.07922 25.6051 8.87774 24.3622 12.6765C24.2641 12.7442 24.166 12.8122 24.0679 12.88C18.4531 11.5167 14.6588 13.6195 12.6849 19.1885C11.7047 23.5781 12.8495 27.2074 16.1194 30.0757C19.6122 32.1353 23.0795 32.0675 26.5211 29.8722C28.2866 28.2806 29.3661 26.2794 29.7594 23.8689C29.8622 20.4762 29.9931 17.0845 30.1519 13.694C30.8382 7.69805 33.8802 3.52631 39.2779 1.17874C45.0304 -0.859918 50.4601 -0.181654 55.5674 3.21374C60.2057 7.33175 61.8739 12.521 60.572 18.7815C58.9183 24.7688 55.0912 27.9908 49.0908 28.4477C47.5877 28.5494 46.083 28.5832 44.5769 28.5494C44.9054 24.8282 45.0363 21.0975 44.9694 17.357C47.791 17.6537 48.6414 16.1614 48.1095 13.287C47.717 11.9642 46.4526 11.4555 44.9694 11.4555C43.7918 11.4555 42.5162 11.9642 42.3199 13.4905C42.0681 17.3464 41.9374 21.2129 41.9274 25.0899C41.0937 31.8069 37.9863 37.0639 32.6051 40.8612C25.1797 44.9773 17.7218 45.0451 10.2316 41.0647C2.20319 35.5026 -1.10049 27.7356 0.320555 17.764C2.86623 7.48112 9.17928 1.57963 19.2595 0.0594927Z" fill="#FF3D00"/>
</svg>
