<svg width="96" height="96" viewBox="0 0 96 96" fill="none" xmlns="http://www.w3.org/2000/svg">
<rect width="96" height="96" rx="12" fill="#0C0D10"/>
<path d="M43.7643 48C43.7643 42.7767 45.7206 37.9388 49.2725 34.3768C50.2656 33.3809 51.3636 32.514 52.5414 31.774H43.6719L36.2747 52.3115L28.9234 31.774H18.9375L32.021 64.4577H40.3428L44.5995 53.8617C44.0503 52.0301 43.7643 50.0913 43.7643 48.0927V48Z" fill="white"/>
<path d="M70.3012 52.7288C68.3594 55.0932 66.3717 56.6695 62.9965 56.6695C58.4657 56.6695 55.2756 52.8679 55.2756 48V47.9073C55.2756 43.1785 58.4657 39.2842 62.9965 39.2842C66.094 39.2842 68.2207 40.8141 70.07 43.0858L76.82 37.847C73.9536 33.9066 69.7002 31.125 63.0889 31.125C53.2877 31.125 46.0757 38.5427 46.0757 48V48.0927C46.0757 57.7818 53.5188 64.875 62.7653 64.875C69.8848 64.875 73.9995 61.7688 77.0508 57.55L70.3009 52.7285L70.3012 52.7288Z" fill="white"/>
</svg>
