<svg width="32" height="32" viewBox="0 0 32 32" fill="none" xmlns="http://www.w3.org/2000/svg">
<path fill-rule="evenodd" clip-rule="evenodd" d="M4.81939 6.35627C4.54069 6.73986 4.27619 7.14286 4.02589 7.56524C2.6753 9.89286 2 12.709 2 16.0136C2 19.3183 2.6753 22.1344 4.02589 24.462C5.37648 26.7896 7.17248 28.5425 9.41389 29.7207C11.684 30.8701 14.1553 31.4449 16.8278 31.4449C20.1899 31.4449 23.0204 30.6115 25.3193 28.9448C27.6181 27.2781 29.1412 24.9793 29.8883 22.0482L24.8451 20.9275C24.3853 22.8528 23.4514 24.3614 22.0434 25.4534C21.6286 25.7731 21.1813 26.0448 20.7016 26.2684L18.9509 31.0001H13.9024L12.0072 25.858C11.947 25.8244 11.8872 25.7901 11.8277 25.7551C10.3622 24.8931 9.21274 23.643 8.37939 22.0051C7.54605 20.3384 7.12938 18.3412 7.12938 16.0136C7.12938 15.0253 7.2045 14.0991 7.35475 13.2352L4.81939 6.35627ZM22.6557 7.19894C22.4887 7.04128 22.3133 6.89038 22.1296 6.74627C20.6928 5.56809 18.9255 4.979 16.8278 4.979C14.9599 4.979 13.2932 5.41004 11.8277 6.27212C11.2811 6.59368 10.7784 6.97121 10.3197 7.40471L8.70961 2.76432C8.95317 2.61849 9.2023 2.48027 9.45699 2.34966C11.7271 1.17148 14.1841 0.582397 16.8278 0.582397C19.1267 0.582397 21.1956 0.984701 23.0348 1.78931C23.4881 1.98458 23.9211 2.20017 24.3338 2.43606L22.6557 7.19894ZM26.2778 11.1975L29.9314 10.4101C29.6463 8.77094 29.0667 7.30853 28.1924 6.02287L26.2778 11.1975Z" />
<path d="M16.4365 25L10.8074 11.5L22.0657 11.5L16.4365 25Z" fill="#FF3D00"/>
<style>
    path:first-child { fill: #000; }
    @media (prefers-color-scheme: dark) {
        path:first-child { fill: #FFF; }
    }
</style>
</svg>


