<svg width="100%" viewBox="0 0 32 32" fill="none" xmlns="http://www.w3.org/2000/svg">
<path d="M19.2 3.2C19.2 3.71543 19.0782 4.2024 18.8617 4.63367L17.7381 7.60029C17.2331 8.93369 16.8903 10.323 16.7171 11.7383L16.3754 14.5318C16.3278 14.9209 16.7707 15.1766 17.0839 14.9408L19.3322 13.2481C20.4713 12.3905 21.5031 11.399 22.4053 10.2949L24.4128 7.83842C24.6781 7.43537 25.0388 7.08641 25.4851 6.82873C27.0157 5.94508 28.9728 6.46948 29.8564 8.00001C30.7401 9.53055 30.2157 11.4876 28.6851 12.3713C28.2388 12.629 27.7561 12.767 27.2744 12.7951L24.1434 13.3054C22.7361 13.5347 21.3616 13.9325 20.0493 14.4902L17.4593 15.5909C17.0984 15.7443 17.0984 16.2557 17.4593 16.409L20.0494 17.5098C21.3617 18.0675 22.7362 18.4653 24.1435 18.6947L27.2747 19.2049C27.7563 19.2331 28.2389 19.3711 28.6852 19.6287C30.2158 20.5124 30.7402 22.4695 29.8565 24C28.9728 25.5306 27.0158 26.055 25.4852 25.1713C25.0388 24.9136 24.6781 24.5646 24.4128 24.1614L22.4054 21.7051C21.5032 20.601 20.4714 19.6095 19.3323 18.7519L17.0839 17.0591C16.7707 16.8233 16.3278 17.079 16.3754 17.4682L16.7172 20.2617C16.8903 21.677 17.2331 23.0663 17.7381 24.3997L18.8617 27.3663C19.0782 27.7976 19.2 28.2846 19.2 28.8C19.2 30.5673 17.7674 32 16 32C14.2327 32 12.8 30.5673 12.8 28.8C12.8 28.2846 12.9219 27.7977 13.1383 27.3665L14.262 24.3997C14.767 23.0663 15.1098 21.677 15.2829 20.2617L15.6247 17.4682C15.6723 17.0791 15.2294 16.8234 14.9162 17.0592L12.6678 18.7519C11.5287 19.6095 10.4969 20.601 9.59468 21.7051L7.58731 24.1615C7.32206 24.5646 6.96127 24.9136 6.51489 25.1713C4.98435 26.055 3.02726 25.5306 2.14361 24C1.25995 22.4695 1.78435 20.5124 3.31489 19.6287C3.76121 19.3711 4.24379 19.2331 4.72546 19.2049L7.85662 18.6947C9.26388 18.4653 10.6384 18.0675 11.9507 17.5098L14.5409 16.409C14.9017 16.2557 14.9017 15.7443 14.5409 15.591L11.9508 14.4902C10.6385 13.9325 9.26397 13.5347 7.85671 13.3054L4.72573 12.7951C4.244 12.767 3.76134 12.629 3.31497 12.3713C1.78443 11.4876 1.26003 9.53056 2.14369 8.00002C3.02734 6.46949 4.98443 5.94508 6.51497 6.82874C6.96128 7.08642 7.32204 7.43538 7.58728 7.83843L9.59477 10.295C10.497 11.399 11.5288 12.3905 12.6679 13.2481L14.9162 14.9408C15.2294 15.1766 15.6723 14.9209 15.6247 14.5317L15.2829 11.7383C15.1098 10.323 14.767 8.93369 14.262 7.60029L13.1383 4.63349C12.9219 4.20227 12.8 3.71536 12.8 3.2C12.8 1.43269 14.2327 0 16 0C17.7673 0 19.2 1.43269 19.2 3.2Z" fill="white"/>
</svg>
