<svg width="20" height="20" viewBox="0 0 20 20" fill="none" xmlns="http://www.w3.org/2000/svg">
<path d="M5.78369 4.16669C5.78338 4.84528 5.37169 5.45593 4.74274 5.71069C4.11379 5.96546 3.39318 5.81346 2.92071 5.32637C2.44823 4.83928 2.31825 4.11437 2.59204 3.49347C2.86584 2.87257 3.48874 2.47966 4.16703 2.50002C5.06792 2.52706 5.7841 3.26539 5.78369 4.16669ZM5.83369 7.06669H2.50036V17.5H5.83369V7.06669ZM11.1004 7.06669H7.78369V17.5H11.067V12.025C11.067 8.975 15.042 8.69166 15.042 12.025V17.5H18.3337V10.8917C18.3337 5.75002 12.4504 5.94169 11.067 8.46666L11.1004 7.06669Z" fill="white"/>
</svg>
