<svg width="100%" viewBox="0 0 17 16" fill="none" xmlns="http://www.w3.org/2000/svg">
<path d="M5.31137 7.27152C5.14994 6.98106 4.89664 6.75243 4.59122 6.62151C4.28579 6.49059 3.94554 6.4648 3.62387 6.54818C3.3022 6.63155 3.01732 6.81939 2.81396 7.08219C2.61059 7.34499 2.50024 7.66789 2.50024 8.00019C2.50024 8.33249 2.61059 8.65538 2.81396 8.91819C3.01732 9.18099 3.3022 9.36882 3.62387 9.4522C3.94554 9.53558 4.28579 9.50979 4.59122 9.37887C4.89664 9.24795 5.14994 9.01931 5.31137 8.72886M5.31137 7.27152C5.43137 7.48752 5.50003 7.73552 5.50003 8.00019C5.50003 8.26486 5.43137 8.51352 5.31137 8.72886M5.31137 7.27152L11.6887 3.72886M5.31137 8.72886L11.6887 12.2715M11.6887 3.72886C11.7822 3.90495 11.9099 4.06063 12.0642 4.18681C12.2186 4.31298 12.3966 4.40712 12.5878 4.46371C12.779 4.5203 12.9795 4.5382 13.1777 4.51638C13.3759 4.49456 13.5677 4.43346 13.742 4.33663C13.9163 4.2398 14.0695 4.1092 14.1927 3.95246C14.316 3.79573 14.4067 3.61599 14.4596 3.42378C14.5126 3.23156 14.5267 3.03072 14.5011 2.83299C14.4756 2.63526 14.4108 2.44461 14.3107 2.27219C14.1134 1.93242 13.7907 1.68361 13.4119 1.57926C13.0331 1.47492 12.6285 1.52335 12.2851 1.71416C11.9416 1.90497 11.6867 2.22291 11.5752 2.59965C11.4637 2.97639 11.5044 3.38184 11.6887 3.72886ZM11.6887 12.2715C11.593 12.4438 11.5322 12.6332 11.5097 12.8289C11.4872 13.0247 11.5035 13.223 11.5576 13.4124C11.6118 13.6019 11.7027 13.7788 11.8252 13.9332C11.9477 14.0875 12.0995 14.2162 12.2717 14.3119C12.444 14.4075 12.6334 14.4684 12.8291 14.4909C13.0249 14.5133 13.2231 14.4971 13.4126 14.4429C13.6021 14.3888 13.779 14.2979 13.9333 14.1753C14.0877 14.0528 14.2163 13.9011 14.312 13.7289C14.5053 13.381 14.5524 12.9706 14.4431 12.5879C14.3338 12.2053 14.0769 11.8818 13.729 11.6885C13.3812 11.4953 12.9708 11.4481 12.5881 11.5575C12.2055 11.6668 11.882 11.9236 11.6887 12.2715Z" stroke="#fff" stroke-width="1.5" stroke-linecap="round" stroke-linejoin="round"></path>
</svg>